<mxfile host="app.diagrams.net" agent="Mozilla/5.0 (X11; Linux x86_64) AppleWebKit/537.36 (KHTML, like Gecko) Chrome/139.0.0.0 Safari/537.36" version="28.1.1">
  <diagram name="Página-1" id="O258Eay5o-C_NFkbpCgu">
    <mxGraphModel dx="1307" dy="579" grid="1" gridSize="10" guides="1" tooltips="1" connect="1" arrows="1" fold="1" page="1" pageScale="1" pageWidth="827" pageHeight="1169" math="0" shadow="0">
      <root>
        <mxCell id="0" />
        <mxCell id="1" parent="0" />
        <mxCell id="u1WtRKhbPg-GGj4fc1lE-1" value="Enviar Información de Nueva Orden de Servicio&amp;nbsp;" style="ellipse;html=1;shape=endState;fillColor=strokeColor;labelPosition=center;verticalLabelPosition=bottom;align=center;verticalAlign=top;" parent="1" vertex="1">
          <mxGeometry x="420" y="830" width="30" height="30" as="geometry" />
        </mxCell>
        <mxCell id="u1WtRKhbPg-GGj4fc1lE-2" style="rounded=0;orthogonalLoop=1;jettySize=auto;html=1;" parent="1" source="u1WtRKhbPg-GGj4fc1lE-3" target="u1WtRKhbPg-GGj4fc1lE-10" edge="1">
          <mxGeometry relative="1" as="geometry" />
        </mxCell>
        <mxCell id="u1WtRKhbPg-GGj4fc1lE-3" value="&lt;font style=&quot;vertical-align: inherit;&quot;&gt;&lt;font style=&quot;vertical-align: inherit;&quot;&gt;Solicitar CI o Nombre del Cliente&lt;/font&gt;&lt;/font&gt;" style="html=1;align=center;verticalAlign=top;rounded=1;absoluteArcSize=1;arcSize=10;dashed=0;whiteSpace=wrap;" parent="1" vertex="1">
          <mxGeometry x="365" y="70" width="140" height="40" as="geometry" />
        </mxCell>
        <mxCell id="u1WtRKhbPg-GGj4fc1lE-4" style="rounded=0;orthogonalLoop=1;jettySize=auto;html=1;entryX=0;entryY=0.5;entryDx=0;entryDy=0;" parent="1" source="u1WtRKhbPg-GGj4fc1lE-5" target="u1WtRKhbPg-GGj4fc1lE-3" edge="1">
          <mxGeometry relative="1" as="geometry" />
        </mxCell>
        <mxCell id="u1WtRKhbPg-GGj4fc1lE-5" value="Registrar Nueva Orden de servicio" style="ellipse;fillColor=strokeColor;html=1;labelPosition=center;verticalLabelPosition=top;align=center;verticalAlign=bottom;" parent="1" vertex="1">
          <mxGeometry x="135" y="60" width="30" height="30" as="geometry" />
        </mxCell>
        <mxCell id="u1WtRKhbPg-GGj4fc1lE-6" value="NO" style="edgeStyle=orthogonalEdgeStyle;rounded=0;orthogonalLoop=1;jettySize=auto;html=1;entryX=0.5;entryY=1;entryDx=0;entryDy=0;" parent="1" source="u1WtRKhbPg-GGj4fc1lE-8" target="u1WtRKhbPg-GGj4fc1lE-3" edge="1">
          <mxGeometry relative="1" as="geometry" />
        </mxCell>
        <mxCell id="u1WtRKhbPg-GGj4fc1lE-7" value="SI" style="edgeStyle=orthogonalEdgeStyle;rounded=0;orthogonalLoop=1;jettySize=auto;html=1;entryX=0.5;entryY=0;entryDx=0;entryDy=0;" parent="1" source="u1WtRKhbPg-GGj4fc1lE-8" target="u1WtRKhbPg-GGj4fc1lE-12" edge="1">
          <mxGeometry x="0.4" relative="1" as="geometry">
            <mxPoint x="435" y="220" as="targetPoint" />
            <mxPoint as="offset" />
          </mxGeometry>
        </mxCell>
        <mxCell id="u1WtRKhbPg-GGj4fc1lE-8" value="" style="rhombus;labelPosition=right;verticalLabelPosition=middle;align=left;verticalAlign=middle;" parent="1" vertex="1">
          <mxGeometry x="420" y="150" width="30" height="30" as="geometry" />
        </mxCell>
        <mxCell id="u1WtRKhbPg-GGj4fc1lE-9" value="CI o Nombre Correctos" style="rounded=0;orthogonalLoop=1;jettySize=auto;html=1;entryX=0;entryY=0.5;entryDx=0;entryDy=0;" parent="1" source="u1WtRKhbPg-GGj4fc1lE-10" target="u1WtRKhbPg-GGj4fc1lE-8" edge="1">
          <mxGeometry x="0.4813" y="20" relative="1" as="geometry">
            <mxPoint as="offset" />
          </mxGeometry>
        </mxCell>
        <mxCell id="u1WtRKhbPg-GGj4fc1lE-10" value="Ingresar CI o Nombre del cliente" style="html=1;align=center;verticalAlign=top;rounded=1;absoluteArcSize=1;arcSize=10;dashed=0;whiteSpace=wrap;" parent="1" vertex="1">
          <mxGeometry x="80" y="120" width="140" height="40" as="geometry" />
        </mxCell>
        <mxCell id="u1WtRKhbPg-GGj4fc1lE-11" style="edgeStyle=orthogonalEdgeStyle;rounded=0;orthogonalLoop=1;jettySize=auto;html=1;" parent="1" source="u1WtRKhbPg-GGj4fc1lE-12" target="u1WtRKhbPg-GGj4fc1lE-14" edge="1">
          <mxGeometry relative="1" as="geometry" />
        </mxCell>
        <mxCell id="u1WtRKhbPg-GGj4fc1lE-12" value="&lt;font style=&quot;vertical-align: inherit;&quot;&gt;&lt;font style=&quot;vertical-align: inherit;&quot;&gt;Mostrar Información de vehículos&lt;/font&gt;&lt;/font&gt;" style="html=1;align=center;verticalAlign=top;rounded=1;absoluteArcSize=1;arcSize=10;dashed=0;whiteSpace=wrap;" parent="1" vertex="1">
          <mxGeometry x="365" y="210" width="140" height="40" as="geometry" />
        </mxCell>
        <mxCell id="u1WtRKhbPg-GGj4fc1lE-13" style="rounded=0;orthogonalLoop=1;jettySize=auto;html=1;" parent="1" source="u1WtRKhbPg-GGj4fc1lE-14" target="u1WtRKhbPg-GGj4fc1lE-15" edge="1">
          <mxGeometry relative="1" as="geometry" />
        </mxCell>
        <mxCell id="u1WtRKhbPg-GGj4fc1lE-14" value="&lt;font style=&quot;vertical-align: inherit;&quot;&gt;&lt;font style=&quot;vertical-align: inherit;&quot;&gt;Solicitar&amp;nbsp; Vehículos&lt;/font&gt;&lt;/font&gt;" style="html=1;align=center;verticalAlign=top;rounded=1;absoluteArcSize=1;arcSize=10;dashed=0;whiteSpace=wrap;" parent="1" vertex="1">
          <mxGeometry x="365" y="270" width="140" height="30" as="geometry" />
        </mxCell>
        <mxCell id="u1WtRKhbPg-GGj4fc1lE-15" value="&lt;font style=&quot;vertical-align: inherit;&quot;&gt;&lt;font style=&quot;vertical-align: inherit;&quot;&gt;Seleccionar Vehículos&lt;/font&gt;&lt;/font&gt;" style="html=1;align=center;verticalAlign=top;rounded=1;absoluteArcSize=1;arcSize=10;dashed=0;whiteSpace=wrap;" parent="1" vertex="1">
          <mxGeometry x="80" y="310" width="140" height="30" as="geometry" />
        </mxCell>
        <mxCell id="u1WtRKhbPg-GGj4fc1lE-16" style="rounded=0;orthogonalLoop=1;jettySize=auto;html=1;entryX=0.5;entryY=0;entryDx=0;entryDy=0;" parent="1" source="u1WtRKhbPg-GGj4fc1lE-17" target="u1WtRKhbPg-GGj4fc1lE-19" edge="1">
          <mxGeometry relative="1" as="geometry" />
        </mxCell>
        <mxCell id="u1WtRKhbPg-GGj4fc1lE-17" value="&lt;font style=&quot;vertical-align: inherit;&quot;&gt;&lt;font style=&quot;vertical-align: inherit;&quot;&gt;Mostrar Información de&amp;nbsp;&lt;/font&gt;&lt;/font&gt;&lt;div&gt;&lt;font style=&quot;vertical-align: inherit;&quot;&gt;&lt;font style=&quot;vertical-align: inherit;&quot;&gt;Cliente ,Vehículo, numero de Orden de servicio y Fecha de entrada&lt;/font&gt;&lt;/font&gt;&lt;/div&gt;" style="html=1;align=center;verticalAlign=top;rounded=1;absoluteArcSize=1;arcSize=10;dashed=0;whiteSpace=wrap;" parent="1" vertex="1">
          <mxGeometry x="349" y="410" width="180" height="50" as="geometry" />
        </mxCell>
        <mxCell id="u1WtRKhbPg-GGj4fc1lE-18" style="rounded=0;orthogonalLoop=1;jettySize=auto;html=1;" parent="1" source="u1WtRKhbPg-GGj4fc1lE-19" target="u1WtRKhbPg-GGj4fc1lE-26" edge="1">
          <mxGeometry relative="1" as="geometry" />
        </mxCell>
        <mxCell id="u1WtRKhbPg-GGj4fc1lE-19" value="Solicitar Operadora" style="html=1;align=center;verticalAlign=top;rounded=1;absoluteArcSize=1;arcSize=10;dashed=0;whiteSpace=wrap;" parent="1" vertex="1">
          <mxGeometry x="368" y="500" width="140" height="30" as="geometry" />
        </mxCell>
        <mxCell id="u1WtRKhbPg-GGj4fc1lE-20" value="Solicitar Nº Patrimonio" style="html=1;align=center;verticalAlign=top;rounded=1;absoluteArcSize=1;arcSize=10;dashed=0;whiteSpace=wrap;" parent="1" vertex="1">
          <mxGeometry x="368" y="550" width="140" height="30" as="geometry" />
        </mxCell>
        <mxCell id="u1WtRKhbPg-GGj4fc1lE-21" value="Solicitar Accesorios" style="html=1;align=center;verticalAlign=top;rounded=1;absoluteArcSize=1;arcSize=10;dashed=0;whiteSpace=wrap;" parent="1" vertex="1">
          <mxGeometry x="368" y="590" width="140" height="30" as="geometry" />
        </mxCell>
        <mxCell id="u1WtRKhbPg-GGj4fc1lE-22" value="Solicitar defectos y reclamos" style="html=1;align=center;verticalAlign=top;rounded=1;absoluteArcSize=1;arcSize=10;dashed=0;whiteSpace=wrap;" parent="1" vertex="1">
          <mxGeometry x="368" y="630" width="137" height="40" as="geometry" />
        </mxCell>
        <mxCell id="u1WtRKhbPg-GGj4fc1lE-23" value="Solicitar Observaciones" style="html=1;align=center;verticalAlign=top;rounded=1;absoluteArcSize=1;arcSize=10;dashed=0;whiteSpace=wrap;" parent="1" vertex="1">
          <mxGeometry x="365" y="680" width="140" height="30" as="geometry" />
        </mxCell>
        <mxCell id="u1WtRKhbPg-GGj4fc1lE-24" value="Solicitar Observaciones lado del Técnico&amp;nbsp;" style="html=1;align=center;verticalAlign=top;rounded=1;absoluteArcSize=1;arcSize=10;dashed=0;whiteSpace=wrap;" parent="1" vertex="1">
          <mxGeometry x="368" y="720" width="140" height="40" as="geometry" />
        </mxCell>
        <mxCell id="u1WtRKhbPg-GGj4fc1lE-25" style="rounded=0;orthogonalLoop=1;jettySize=auto;html=1;entryX=0;entryY=0.5;entryDx=0;entryDy=0;" parent="1" source="u1WtRKhbPg-GGj4fc1lE-26" target="u1WtRKhbPg-GGj4fc1lE-20" edge="1">
          <mxGeometry relative="1" as="geometry" />
        </mxCell>
        <mxCell id="u1WtRKhbPg-GGj4fc1lE-26" value="Ingresar Operadora" style="html=1;align=center;verticalAlign=top;rounded=1;absoluteArcSize=1;arcSize=10;dashed=0;whiteSpace=wrap;" parent="1" vertex="1">
          <mxGeometry x="80" y="510" width="140" height="30" as="geometry" />
        </mxCell>
        <mxCell id="u1WtRKhbPg-GGj4fc1lE-27" style="rounded=0;orthogonalLoop=1;jettySize=auto;html=1;exitX=0;exitY=0.75;exitDx=0;exitDy=0;" parent="1" source="u1WtRKhbPg-GGj4fc1lE-20" target="u1WtRKhbPg-GGj4fc1lE-29" edge="1">
          <mxGeometry relative="1" as="geometry">
            <mxPoint x="363" y="572" as="sourcePoint" />
          </mxGeometry>
        </mxCell>
        <mxCell id="u1WtRKhbPg-GGj4fc1lE-28" style="rounded=0;orthogonalLoop=1;jettySize=auto;html=1;entryX=0;entryY=0.5;entryDx=0;entryDy=0;" parent="1" source="u1WtRKhbPg-GGj4fc1lE-29" target="u1WtRKhbPg-GGj4fc1lE-21" edge="1">
          <mxGeometry relative="1" as="geometry">
            <mxPoint x="363" y="620" as="targetPoint" />
          </mxGeometry>
        </mxCell>
        <mxCell id="u1WtRKhbPg-GGj4fc1lE-29" value="Ingresar Nº Patrimonio" style="html=1;align=center;verticalAlign=top;rounded=1;absoluteArcSize=1;arcSize=10;dashed=0;whiteSpace=wrap;" parent="1" vertex="1">
          <mxGeometry x="80" y="570" width="140" height="30" as="geometry" />
        </mxCell>
        <mxCell id="u1WtRKhbPg-GGj4fc1lE-30" style="rounded=0;orthogonalLoop=1;jettySize=auto;html=1;entryX=1;entryY=0.25;entryDx=0;entryDy=0;" parent="1" target="u1WtRKhbPg-GGj4fc1lE-32" edge="1">
          <mxGeometry relative="1" as="geometry">
            <mxPoint x="365" y="700" as="sourcePoint" />
            <Array as="points">
              <mxPoint x="365" y="700" />
            </Array>
          </mxGeometry>
        </mxCell>
        <mxCell id="u1WtRKhbPg-GGj4fc1lE-31" style="rounded=0;orthogonalLoop=1;jettySize=auto;html=1;exitX=1;exitY=0.75;exitDx=0;exitDy=0;" parent="1" source="u1WtRKhbPg-GGj4fc1lE-32" target="u1WtRKhbPg-GGj4fc1lE-24" edge="1">
          <mxGeometry relative="1" as="geometry">
            <mxPoint x="313" y="905" as="targetPoint" />
          </mxGeometry>
        </mxCell>
        <mxCell id="u1WtRKhbPg-GGj4fc1lE-32" value="Ingresar Observaciones" style="html=1;align=center;verticalAlign=top;rounded=1;absoluteArcSize=1;arcSize=10;dashed=0;whiteSpace=wrap;" parent="1" vertex="1">
          <mxGeometry x="80" y="720" width="140" height="30" as="geometry" />
        </mxCell>
        <mxCell id="u1WtRKhbPg-GGj4fc1lE-33" style="rounded=0;orthogonalLoop=1;jettySize=auto;html=1;exitX=0;exitY=0.75;exitDx=0;exitDy=0;entryX=1;entryY=0.25;entryDx=0;entryDy=0;" parent="1" source="u1WtRKhbPg-GGj4fc1lE-22" target="u1WtRKhbPg-GGj4fc1lE-35" edge="1">
          <mxGeometry relative="1" as="geometry">
            <mxPoint x="368" y="818" as="sourcePoint" />
            <mxPoint x="232.25563909774428" y="700" as="targetPoint" />
          </mxGeometry>
        </mxCell>
        <mxCell id="u1WtRKhbPg-GGj4fc1lE-34" style="rounded=0;orthogonalLoop=1;jettySize=auto;html=1;entryX=0;entryY=0.5;entryDx=0;entryDy=0;exitX=1;exitY=0.75;exitDx=0;exitDy=0;" parent="1" source="u1WtRKhbPg-GGj4fc1lE-35" target="u1WtRKhbPg-GGj4fc1lE-23" edge="1">
          <mxGeometry relative="1" as="geometry">
            <mxPoint x="303" y="855" as="targetPoint" />
          </mxGeometry>
        </mxCell>
        <mxCell id="u1WtRKhbPg-GGj4fc1lE-35" value="Ingresar defectos y reclamos" style="html=1;align=center;verticalAlign=top;rounded=1;absoluteArcSize=1;arcSize=10;dashed=0;whiteSpace=wrap;" parent="1" vertex="1">
          <mxGeometry x="80" y="670" width="140" height="30" as="geometry" />
        </mxCell>
        <mxCell id="u1WtRKhbPg-GGj4fc1lE-36" style="rounded=0;orthogonalLoop=1;jettySize=auto;html=1;exitX=0;exitY=0.75;exitDx=0;exitDy=0;" parent="1" source="u1WtRKhbPg-GGj4fc1lE-21" target="u1WtRKhbPg-GGj4fc1lE-38" edge="1">
          <mxGeometry relative="1" as="geometry">
            <mxPoint x="353" y="648" as="sourcePoint" />
          </mxGeometry>
        </mxCell>
        <mxCell id="u1WtRKhbPg-GGj4fc1lE-37" style="rounded=0;orthogonalLoop=1;jettySize=auto;html=1;" parent="1" source="u1WtRKhbPg-GGj4fc1lE-38" target="u1WtRKhbPg-GGj4fc1lE-22" edge="1">
          <mxGeometry relative="1" as="geometry">
            <mxPoint x="353" y="680" as="targetPoint" />
          </mxGeometry>
        </mxCell>
        <mxCell id="u1WtRKhbPg-GGj4fc1lE-38" value="Ingresar Accesorios" style="html=1;align=center;verticalAlign=top;rounded=1;absoluteArcSize=1;arcSize=10;dashed=0;whiteSpace=wrap;" parent="1" vertex="1">
          <mxGeometry x="80" y="620" width="140" height="30" as="geometry" />
        </mxCell>
        <mxCell id="u1WtRKhbPg-GGj4fc1lE-39" style="rounded=0;orthogonalLoop=1;jettySize=auto;html=1;exitX=1;exitY=0.75;exitDx=0;exitDy=0;entryX=0;entryY=0;entryDx=0;entryDy=0;" parent="1" source="u1WtRKhbPg-GGj4fc1lE-40" target="u1WtRKhbPg-GGj4fc1lE-1" edge="1">
          <mxGeometry relative="1" as="geometry">
            <mxPoint x="353" y="811" as="targetPoint" />
          </mxGeometry>
        </mxCell>
        <mxCell id="u1WtRKhbPg-GGj4fc1lE-40" value="Ingresar Observaciones del lado del Técnico" style="html=1;align=center;verticalAlign=top;rounded=1;absoluteArcSize=1;arcSize=10;dashed=0;whiteSpace=wrap;" parent="1" vertex="1">
          <mxGeometry x="80" y="760" width="140" height="40" as="geometry" />
        </mxCell>
        <mxCell id="u1WtRKhbPg-GGj4fc1lE-41" style="rounded=0;orthogonalLoop=1;jettySize=auto;html=1;exitX=0;exitY=0.75;exitDx=0;exitDy=0;entryX=0.989;entryY=0.138;entryDx=0;entryDy=0;entryPerimeter=0;" parent="1" source="u1WtRKhbPg-GGj4fc1lE-24" target="u1WtRKhbPg-GGj4fc1lE-40" edge="1">
          <mxGeometry relative="1" as="geometry">
            <mxPoint x="383" y="780" as="sourcePoint" />
            <mxPoint x="235" y="798" as="targetPoint" />
          </mxGeometry>
        </mxCell>
        <mxCell id="u1WtRKhbPg-GGj4fc1lE-42" value="NO" style="rounded=0;orthogonalLoop=1;jettySize=auto;html=1;entryX=0.5;entryY=1;entryDx=0;entryDy=0;" parent="1" source="u1WtRKhbPg-GGj4fc1lE-43" target="u1WtRKhbPg-GGj4fc1lE-14" edge="1">
          <mxGeometry relative="1" as="geometry" />
        </mxCell>
        <mxCell id="u1WtRKhbPg-GGj4fc1lE-43" value="" style="rhombus;labelPosition=right;verticalLabelPosition=middle;align=left;verticalAlign=middle;" parent="1" vertex="1">
          <mxGeometry x="420" y="340" width="30" height="30" as="geometry" />
        </mxCell>
        <mxCell id="u1WtRKhbPg-GGj4fc1lE-44" style="rounded=0;orthogonalLoop=1;jettySize=auto;html=1;entryX=0;entryY=0.5;entryDx=0;entryDy=0;" parent="1" source="u1WtRKhbPg-GGj4fc1lE-15" target="u1WtRKhbPg-GGj4fc1lE-43" edge="1">
          <mxGeometry relative="1" as="geometry" />
        </mxCell>
        <mxCell id="u1WtRKhbPg-GGj4fc1lE-45" value="SI" style="edgeStyle=orthogonalEdgeStyle;rounded=0;orthogonalLoop=1;jettySize=auto;html=1;entryX=0.48;entryY=0.071;entryDx=0;entryDy=0;entryPerimeter=0;" parent="1" source="u1WtRKhbPg-GGj4fc1lE-43" target="u1WtRKhbPg-GGj4fc1lE-17" edge="1">
          <mxGeometry relative="1" as="geometry" />
        </mxCell>
        <mxCell id="G5cKIwIE44Jj4d8PpbTK-1" value="Responsable de Registro" style="swimlane;whiteSpace=wrap;html=1;" vertex="1" parent="1">
          <mxGeometry width="310" height="910" as="geometry" />
        </mxCell>
        <mxCell id="G5cKIwIE44Jj4d8PpbTK-2" value="SubSistema de Registro de Vehículos" style="swimlane;whiteSpace=wrap;html=1;" vertex="1" parent="1">
          <mxGeometry x="310" width="380" height="910" as="geometry" />
        </mxCell>
      </root>
    </mxGraphModel>
  </diagram>
</mxfile>
